<?xml version="1.0" encoding="UTF-8"?>
<svg version="1.1" xmlns="http://www.w3.org/2000/svg" width="794" height="614">
<path d="M0 0 C2.00122866 -0.00247835 4.00245516 -0.00654277 6.00368118 -0.01062775 C18.45705634 -0.02993032 30.90636455 -0.0129256 43.35106277 0.49748993 C44.17900848 0.52680603 45.00695419 0.55612213 45.85998917 0.5863266 C62.01404862 1.37615045 72.25972131 10.60460664 83.03660965 21.67913055 C85.4179234 24.12410032 87.6133894 26.22185351 90.46434402 28.12248993 C90.46434402 28.78248993 90.46434402 29.44248993 90.46434402 30.12248993 C91.05819901 30.39053436 91.65205399 30.6585788 92.26390457 30.93474579 C94.48148426 32.13174182 95.90924082 33.34137332 97.67137527 35.12639618 C98.25854324 35.70196259 98.84571121 36.27752899 99.45067215 36.8705368 C100.66420128 38.07627859 101.87003128 39.28982099 103.06785965 40.5111618 C103.65889481 41.08543915 104.24992996 41.65971649 104.85887527 42.25139618 C105.64548538 43.04139008 105.64548538 43.04139008 106.4479866 43.84734344 C111.95060624 47.3272057 119.79462462 46.22434431 126.09325027 46.14983368 C128.20327453 46.13716295 130.31330068 46.12480387 132.4233284 46.1127243 C135.70032761 46.08820568 138.97722355 46.06050419 142.25413895 46.02654266 C153.69485387 45.91570501 165.08077544 45.96173903 176.49168777 46.87639618 C177.3673288 46.93786331 178.24296982 46.99933044 179.14514542 47.06266022 C185.08793817 47.61380501 190.29376214 49.06358439 195.46434402 52.12248993 C197.40184402 54.55998993 197.40184402 54.55998993 198.46434402 57.12248993 C198.83559402 57.96811493 199.20684402 58.81373993 199.58934402 59.68498993 C201.31832319 64.50143188 201.6510121 68.92608713 201.74559402 74.02873993 C201.76400345 74.79045502 201.78241287 75.5521701 201.80138016 76.33696747 C201.87978337 79.58678898 201.94768707 82.83681085 202.01659012 86.0868454 C202.06847184 88.46340902 202.12565943 90.83980507 202.18309402 93.21623993 C202.20345718 94.3148233 202.20345718 94.3148233 202.22423172 95.43560028 C202.30582045 98.79096151 202.43546445 101.91088607 203.46434402 105.12248993 C204.22360184 105.1714743 204.98285965 105.22045868 205.76512527 105.27092743 C207.25592606 105.38307587 207.25592606 105.38307587 208.77684402 105.49748993 C210.25604324 105.60190399 210.25604324 105.60190399 211.76512527 105.70842743 C214.46434402 106.12248993 214.46434402 106.12248993 217.46434402 108.12248993 C219.30204286 113.49800469 219.92464729 119.48377487 219.46434402 125.12248993 C218.80434402 126.11248993 218.14434402 127.10248993 217.46434402 128.12248993 C214.90803909 128.48325348 214.90803909 128.48325348 211.63768387 128.4630661 C210.41656906 128.46283951 209.19545425 128.46261292 207.93733597 128.46237946 C206.59998079 128.44705845 205.26262933 128.43141044 203.92528152 128.41545868 C202.56050964 128.40986415 201.19573174 128.40559337 199.83095169 128.40259552 C196.23704296 128.39113533 192.64349736 128.36165864 189.04973221 128.32848358 C185.38329862 128.29780764 181.71680642 128.28409552 178.05028152 128.2689743 C170.85480339 128.23678957 163.65962457 128.18557965 156.46434402 128.12248993 C156.318116 129.22931122 156.17188797 130.33613251 156.02122879 131.47649384 C154.57770157 140.92745198 147.52531231 149.35693642 140.00731277 154.95061493 C129.92545488 161.33114558 119.38026995 162.69012526 107.62059402 160.62248993 C101.93302152 159.07771715 97.26968224 156.4851169 92.46434402 153.12248993 C91.47434402 152.46248993 90.48434402 151.80248993 89.46434402 151.12248993 C89.46434402 150.46248993 89.46434402 149.80248993 89.46434402 149.12248993 C88.80434402 149.12248993 88.14434402 149.12248993 87.46434402 149.12248993 C87.46434402 148.46248993 87.46434402 147.80248993 87.46434402 147.12248993 C86.80434402 147.12248993 86.14434402 147.12248993 85.46434402 147.12248993 C83.77293777 144.74358368 83.77293777 144.74358368 81.90184402 141.55998993 C81.28180496 140.52745087 80.6617659 139.4949118 80.02293777 138.43108368 C78.46434402 135.12248993 78.46434402 135.12248993 77.46434402 128.12248993 C-1.40565598 128.12248993 -80.27565598 128.12248993 -161.53565598 128.12248993 C-162.52565598 132.08248993 -162.52565598 132.08248993 -163.53565598 136.12248993 C-167.32517506 145.81734292 -175.0202834 153.82876094 -184.41065598 158.18498993 C-194.05183577 162.13421955 -205.48889812 162.86921987 -215.47315598 159.55998993 C-227.54366103 154.41280759 -235.53539454 145.01554202 -240.53565598 133.12248993 C-240.88345727 131.79285722 -241.219213 130.45993254 -241.53565598 129.12248993 C-242.24753571 129.11218246 -242.95941544 129.101875 -243.69286728 129.09125519 C-250.38848424 128.99344095 -257.08401115 128.89094989 -263.77947521 128.78315067 C-267.22201337 128.72789113 -270.66455998 128.67446646 -274.10718918 128.62517548 C-278.06130124 128.56848192 -282.01526542 128.50391498 -285.96924973 128.43889618 C-287.83171593 128.41382744 -287.83171593 128.41382744 -289.73180771 128.38825226 C-290.87291504 128.36830704 -292.01402237 128.34836182 -293.18970871 128.32781219 C-294.20008698 128.31226791 -295.21046524 128.29672363 -296.25146103 128.28070831 C-298.53565598 128.12248993 -298.53565598 128.12248993 -299.53565598 127.12248993 C-299.48513946 120.41642244 -298.41808599 114.82847138 -294.22315598 109.43498993 C-292.53565598 108.12248993 -292.53565598 108.12248993 -289.72706223 106.97795868 C-285.69978699 104.63651959 -284.10206459 102.06119169 -281.78565598 98.12248993 C-281.40022629 97.49342743 -281.0147966 96.86436493 -280.61768723 96.21623993 C-279.58140441 94.52376419 -278.5578902 92.82348769 -277.53565598 91.12248993 C-276.87565598 90.13248993 -276.21565598 89.14248993 -275.53565598 88.12248993 C-274.87565598 88.12248993 -274.21565598 88.12248993 -273.53565598 88.12248993 C-273.2804216 87.53338837 -273.02518723 86.9442868 -272.76221848 86.33733368 C-267.84880343 77.46502053 -256.66360384 72.16490667 -247.43946457 69.16863251 C-239.90667574 67.01681527 -232.06636881 66.01763269 -224.341259 64.80129242 C-219.0029926 63.96017089 -213.67018458 63.08547341 -208.33643723 62.21623993 C-206.72243027 61.95462318 -206.72243027 61.95462318 -205.07581711 61.68772125 C-194.66905326 59.99608741 -184.28713717 58.1773796 -173.91065598 56.30998993 C-172.72710022 56.09879013 -172.72710022 56.09879013 -171.51963425 55.88332367 C-167.18617641 55.1096608 -162.8571937 54.3165543 -158.53248215 53.49538422 C-156.53534895 53.1224326 -154.53501176 52.77228774 -152.53370285 52.42253876 C-151.29426926 52.18946014 -150.05483566 51.95638153 -148.77784348 51.71623993 C-147.69615891 51.52094696 -146.61447433 51.32565399 -145.50001144 51.12444305 C-140.93044222 49.57992715 -138.2732825 46.59897834 -135.20753098 42.98577118 C-134.65581223 42.37088837 -134.10409348 41.75600555 -133.53565598 41.12248993 C-132.87565598 41.12248993 -132.21565598 41.12248993 -131.53565598 41.12248993 C-131.53565598 40.46248993 -131.53565598 39.80248993 -131.53565598 39.12248993 C-129.85596848 37.39592743 -129.85596848 37.39592743 -127.66065598 35.49748993 C-126.9413591 34.8658493 -126.22206223 34.23420868 -125.48096848 33.58342743 C-123.53565598 32.12248993 -123.53565598 32.12248993 -121.53565598 32.12248993 C-121.53565598 31.46248993 -121.53565598 30.80248993 -121.53565598 30.12248993 C-116.0594655 25.12248993 -116.0594655 25.12248993 -113.53565598 25.12248993 C-113.53565598 24.46248993 -113.53565598 23.80248993 -113.53565598 23.12248993 C-111.60978018 21.49109056 -109.69238881 19.98525768 -107.66065598 18.49748993 C-107.10507004 18.07725555 -106.5494841 17.65702118 -105.97706223 17.22405243 C-101.79800886 14.12248993 -101.79800886 14.12248993 -99.53565598 14.12248993 C-99.53565598 13.46248993 -99.53565598 12.80248993 -99.53565598 12.12248993 C-97.01991887 10.65472494 -94.49866615 9.19826758 -91.97315598 7.74748993 C-91.26868332 7.33498993 -90.56421066 6.92248993 -89.83839035 6.49748993 C-88.78941574 5.89807587 -88.78941574 5.89807587 -87.71924973 5.28655243 C-87.08559494 4.91997528 -86.45194016 4.55339813 -85.79908371 4.17571259 C-79.91178558 1.43622341 -74.3421637 0.80371899 -67.96924973 0.70842743 C-67.12652512 0.68897064 -66.28380051 0.66951385 -65.41553879 0.64946747 C-62.60151281 0.58837031 -59.78748717 0.54219691 -56.97315598 0.49748993 C-54.96867974 0.45990974 -52.96420383 0.42231161 -50.95972824 0.38469696 C-33.97455103 0.08980941 -16.98739401 0.01818918 0 0 Z " fill="#16C88C" transform="translate(438.5356559753418,253.87751007080078)"/>
<path d="M0 0 C0.6717627 0.26466064 1.34352539 0.52932129 2.03564453 0.80200195 C4.02625467 1.59110072 6.01362153 2.38781483 8 3.1875 C8.67933594 3.46013672 9.35867188 3.73277344 10.05859375 4.01367188 C11.7060527 4.67497582 13.3530741 5.33736966 15 6 C14.69921875 7.8984375 14.69921875 7.8984375 14 10 C12.23860949 10.89796379 10.46761506 11.77988469 8.6640625 12.58984375 C4.43367917 14.82909358 0.67642142 17.71319461 -3.1628418 20.55908203 C-5.76842839 22.47511372 -7.90937168 23.96979056 -11 25 C-11 25.66 -11 26.32 -11 27 C-12.46875 28.4453125 -12.46875 28.4453125 -14.5 30.125 C-18.9046751 33.86702486 -22.95242409 37.87971314 -27 42 C-27.80050781 42.7940625 -28.60101562 43.588125 -29.42578125 44.40625 C-34.96672215 49.98923142 -40.54813567 55.68194826 -45 62.1875 C-45.66 63.115625 -46.32 64.04375 -47 65 C-47.66 65 -48.32 65 -49 65 C-49.39638672 65.87966431 -49.39638672 65.87966431 -49.80078125 66.77709961 C-51.04446603 69.08242328 -52.38027236 70.6787942 -54.1875 72.56640625 C-54.80367187 73.21673828 -55.41984375 73.86707031 -56.0546875 74.53710938 C-56.69664062 75.20548828 -57.33859375 75.87386719 -58 76.5625 C-59.27274913 77.89530858 -60.54365927 79.22987632 -61.8125 80.56640625 C-62.37582031 81.15365479 -62.93914062 81.74090332 -63.51953125 82.34594727 C-65.195549 84.13992736 -65.195549 84.13992736 -67 87 C-67.66 87 -68.32 87 -69 87 C-69.38671875 87.87398437 -69.38671875 87.87398437 -69.78125 88.765625 C-71.09834017 91.1802903 -72.55088384 92.81740177 -74.5 94.75 C-75.1084375 95.36359375 -75.716875 95.9771875 -76.34375 96.609375 C-78 98 -78 98 -80 98 C-80 98.66 -80 99.32 -80 100 C-94.06291154 113.05213977 -110.02282033 121.53416937 -129.4296875 121.26171875 C-134.837822 120.86528001 -139.82653952 119.56655746 -145 118 C-146.41640055 117.60321547 -147.83301991 117.20720989 -149.25 116.8125 C-150.1575 116.544375 -151.065 116.27625 -152 116 C-162.91597668 128.73009315 -171.35973529 142.70593784 -178.11669922 158.01611328 C-178.97238646 159.9379802 -179.85603503 161.84361846 -180.75390625 163.74609375 C-183.6913931 169.89566812 -183.6913931 169.89566812 -185.9765625 176.30078125 C-186.48316406 177.63689453 -186.48316406 177.63689453 -187 179 C-187.99 179.33 -188.98 179.66 -190 180 C-191 179 -191 179 -191.01953125 177.0234375 C-189.57801114 158.5828595 -182.5071445 141.34054441 -174.07470703 125.08496094 C-172.22231623 121.49127229 -170.42707832 117.86910132 -168.625 114.25 C-167.97160664 112.94258213 -167.31797721 111.63528219 -166.6640625 110.328125 C-166.11492187 109.22984375 -165.56578125 108.1315625 -165 107 C-164.59523438 106.23171875 -164.19046875 105.4634375 -163.7734375 104.671875 C-162.86004505 103.00448956 -162.86004505 103.00448956 -163 101 C-162.195625 100.773125 -161.39125 100.54625 -160.5625 100.3125 C-159.716875 99.879375 -158.87125 99.44625 -158 99 C-157.88398438 98.2575 -157.76796875 97.515 -157.6484375 96.75 C-156.75770644 92.97244178 -154.82693996 91.3646836 -152.0625 88.6875 C-150.71865234 87.36298828 -150.71865234 87.36298828 -149.34765625 86.01171875 C-147 84 -147 84 -145 84 C-144.72795242 83.40328995 -144.45590485 82.8065799 -144.1756134 82.19178772 C-143.02473157 80.046109 -141.89940295 78.64610088 -140.19018555 76.93139648 C-139.62587326 76.36077988 -139.06156097 75.79016327 -138.48014832 75.20225525 C-137.87181656 74.59797195 -137.2634848 73.99368866 -136.63671875 73.37109375 C-136.00772171 72.74018326 -135.37872467 72.10927277 -134.73066711 71.45924377 C-133.40078431 70.1280019 -132.06838013 68.79927472 -130.73364258 67.47290039 C-128.69835708 65.44830008 -126.67392688 63.41328878 -124.65039062 61.37695312 C-123.35480727 60.08269176 -122.05860344 58.78905115 -120.76171875 57.49609375 C-120.15945969 56.88978622 -119.55720062 56.2834787 -118.93669128 55.65879822 C-115.81355908 52.56998163 -112.88524377 50.12545945 -109 48 C-108.505 47.505 -108.01 47.01 -107.5 46.5 C-105.5499273 44.5499273 -103.38280509 43.3853518 -101 42 C-98.9934562 40.67653494 -96.99371825 39.34270821 -95 38 C-93 36.66666667 -91 35.33333333 -89 34 C-88.12085938 33.38640625 -87.24171875 32.7728125 -86.3359375 32.140625 C-82.54967224 29.7110309 -78.66247774 27.72128208 -74.625 25.75 C-73.88894531 25.38648438 -73.15289063 25.02296875 -72.39453125 24.6484375 C-70.59817571 23.76192438 -68.79934106 22.88043767 -67 22 C-72.35493856 22.91195583 -76.75745051 25.0444763 -81.625 27.375 C-82.91277344 27.97441406 -82.91277344 27.97441406 -84.2265625 28.5859375 C-85.4640625 29.17375 -85.4640625 29.17375 -86.7265625 29.7734375 C-87.47502441 30.12841309 -88.22348633 30.48338867 -88.99462891 30.84912109 C-91.03608456 32.02070886 -92.37589231 33.31628671 -94 35 C-96.19921875 35.95703125 -96.19921875 35.95703125 -98.6875 36.8125 C-104.82826934 39.15226759 -109.55737493 42.55737493 -114.1875 47.1875 C-116.26141873 49.26141873 -118.48125287 50.51458502 -121 52 C-121.495 52.495 -121.99 52.99 -122.5 53.5 C-124 55 -124 55 -126.21435547 56.23095703 C-129.58524239 58.37166226 -132.27382525 60.98697915 -135.0703125 63.8046875 C-135.63321991 64.36568146 -136.19612732 64.92667542 -136.77609253 65.50466919 C-137.96012115 66.68734208 -139.14164894 67.87252339 -140.32080078 69.06005859 C-142.11924331 70.86920904 -143.928103 72.66744438 -145.73828125 74.46484375 C-146.89126678 75.61915098 -148.04363169 76.77407851 -149.1953125 77.9296875 C-149.73286163 78.46318817 -150.27041077 78.99668884 -150.82424927 79.5463562 C-153.73838181 82.49692777 -155.98367808 85.38272724 -158 89 C-158.52207031 89.51175781 -159.04414063 90.02351563 -159.58203125 90.55078125 C-161.30127923 92.307919 -161.89119571 93.87442563 -162.6875 96.1875 C-162.93886719 96.90292969 -163.19023437 97.61835938 -163.44921875 98.35546875 C-163.63097656 98.89816406 -163.81273437 99.44085938 -164 100 C-167.465 100.495 -167.465 100.495 -171 101 C-173.75637996 95.49457088 -174.54982885 91.06893939 -174.5 84.9375 C-174.49355469 84.10186523 -174.48710937 83.26623047 -174.48046875 82.40527344 C-174.25258802 74.57637093 -172.3560513 68.08590009 -169 61 C-168.70528809 60.37609375 -168.41057617 59.7521875 -168.10693359 59.109375 C-164.00441407 50.57579306 -159.27405855 43.13520385 -153 36 C-152.04480469 34.84757812 -152.04480469 34.84757812 -151.0703125 33.671875 C-129.9226755 8.70237589 -95.95082046 -5.52463523 -63.9375 -8.6875 C-42.22549032 -10.09016011 -20.34003572 -8.06331832 0 0 Z M-65 19 C-65.33 19.66 -65.66 20.32 -66 21 C-64.68 20.67 -63.36 20.34 -62 20 C-62.99 19.67 -63.98 19.34 -65 19 Z " fill="#16C88C" transform="translate(620,57)"/>
<path d="M0 0 C1.80597656 0.10441406 1.80597656 0.10441406 3.6484375 0.2109375 C26.6562278 2.27750549 48.45315582 12.81664591 64 30 C64 30.66 64 31.32 64 32 C64.66 32 65.32 32 66 32 C74.51738025 42.11595015 79.88180125 55.63883536 78.75 68.9375 C78.51652916 70.57179588 78.2399484 72.20122764 77.8984375 73.81640625 C78.05085893 77.09346707 79.90616518 78.5277613 82 81 C90.76895032 96.28900483 95.44026133 111.49367941 97 129 C96.01 129.66 95.02 130.32 94 131 C91.64513558 126.65255799 89.72756601 122.34684749 88.08203125 117.6796875 C82.04600258 100.6720929 73.27300661 86.03072558 62 72 C61.27425781 71.06929688 60.54851562 70.13859375 59.80078125 69.1796875 C57.76452363 66.71497654 55.5170709 64.96454314 53 63 C51.33333333 61.33333333 49.66666667 59.66666667 48 58 C44.69904253 54.96334407 41.35372904 51.9781537 38 49 C37.38898438 48.44957031 36.77796875 47.89914063 36.1484375 47.33203125 C29.11243995 41.11300972 21.13772753 35.03737471 12.375 31.5625 C9 30 9 30 7.5 27.8125 C7.005 27.214375 6.51 26.61625 6 26 C2.37436186 25.66619186 2.37436186 25.66619186 -1 26 C-0.505 26.61875 -0.01 27.2375 0.5 27.875 C2 30 2 30 2 32 C2.86625 31.731875 3.7325 31.46375 4.625 31.1875 C8 31 8 31 10.625 32.875 C11.10839844 33.33390625 11.59179688 33.7928125 12.08984375 34.265625 C14.64268253 36.58353997 17.41110225 38.58731496 20.1875 40.625 C23.3378881 42.94717287 26.26521985 45.20738462 29 48 C29.825 48.495 30.65 48.99 31.5 49.5 C33.7522207 50.85133242 35.3766313 51.94942901 37 54 C37 54.99 37 55.98 37 57 C37.7425 57.226875 38.485 57.45375 39.25 57.6875 C42.57697408 59.27537399 43.81216307 61.06009412 46 64 C46.78375 64.78375 47.5675 65.5675 48.375 66.375 C63.49441341 81.49441341 63.49441341 81.49441341 65 90 C53.57279943 97.68904719 42.86623106 99.85219848 29.25 97.53125 C22.21824814 95.42172444 16.05481297 91.03654198 10 87 C10 86.34 10 85.68 10 85 C9.42580322 84.74959961 8.85160645 84.49919922 8.26000977 84.24121094 C3.81660362 81.80086559 0.48544756 77.82035275 -3.0625 74.25 C-3.91432861 73.39615723 -4.76615723 72.54231445 -5.64379883 71.66259766 C-11.45634867 65.75773247 -16.73379266 59.67041483 -21.6875 53.0390625 C-24.46987905 49.38249003 -27.49545539 46.02087722 -30.63671875 42.671875 C-32 41 -32 41 -32 39 C-32.639375 38.731875 -33.27875 38.46375 -33.9375 38.1875 C-36 37 -36 37 -37 34 C-37.66 34 -38.32 34 -39 34 C-39 33.34 -39 32.68 -39 32 C-39.58652344 31.72800781 -40.17304688 31.45601562 -40.77734375 31.17578125 C-42.95688333 30.02280864 -44.65909709 28.74557711 -46.5625 27.1875 C-51.29949169 23.54297142 -56.50655496 21.28220327 -62 19 C-62 18.01 -62 17.02 -62 16 C-42.28376754 5.68098483 -22.60622044 -1.48508017 0 0 Z M-17 18 C-17 18.66 -17 19.32 -17 20 C-16.34 20 -15.68 20 -15 20 C-15 19.34 -15 18.68 -15 18 C-15.66 18 -16.32 18 -17 18 Z M-10 21 C-9.67 21.66 -9.34 22.32 -9 23 C-8.01 22.67 -7.02 22.34 -6 22 C-7.32 21.67 -8.64 21.34 -10 21 Z M-6 23 C-5.67 23.66 -5.34 24.32 -5 25 C-4.01 24.67 -3.02 24.34 -2 24 C-3.32 23.67 -4.64 23.34 -6 23 Z " fill="#16C88C" transform="translate(322,103)"/>
<path d="" fill="#16C88C" transform="translate(0,0)"/>
</svg>
